<svg xmlns="http://www.w3.org/2000/svg" width="40" height="17" viewBox="0 0 40 17" class="PaymentLogo variant-- "><title>Googlepay</title><path d="M18.95,8.321v4.66H17.515V1.479H21.32a3.354,3.354,0,0,1,2.459,1,3.391,3.391,0,0,1,.161,4.7l-.161.165a3.393,3.393,0,0,1-2.459.981Zm0-5.43V6.909h2.405a1.851,1.851,0,0,0,1.417-.6,2.066,2.066,0,0,0-.044-2.853,1.93,1.93,0,0,0-1.373-.569Zm9.169,1.963a3.526,3.526,0,0,1,2.512.871,3.146,3.146,0,0,1,.918,2.4v4.852H30.177V11.89h-.063a2.724,2.724,0,0,1-2.37,1.348,3.022,3.022,0,0,1-2.111-.771,2.461,2.461,0,0,1-.847-1.926,2.375,2.375,0,0,1,.9-1.944,3.682,3.682,0,0,1,2.4-.725,4.222,4.222,0,0,1,2.1.477v-.34A1.746,1.746,0,0,0,29.6,6.7a2.05,2.05,0,0,0-1.381-.541,2.166,2.166,0,0,0-1.9,1.045l-1.266-.816A3.442,3.442,0,0,1,28.119,4.854Zm-1.854,5.715a1.2,1.2,0,0,0,.472.963,1.72,1.72,0,0,0,1.114.385,2.249,2.249,0,0,0,1.613-.688,2.2,2.2,0,0,0,.713-1.623,2.813,2.813,0,0,0-1.871-.542,2.434,2.434,0,0,0-1.462.431A1.3,1.3,0,0,0,26.265,10.569ZM39.426,5.111,34.632,16.439H33.153l1.782-3.962L31.79,5.111h1.559l2.272,5.65h.027l2.219-5.65Z" fill="var(--paymentLogoColor, #343146)"></path><path d="M13.149,7.312a8.426,8.426,0,0,0-.107-1.339H6.992V8.514h3.466a3.07,3.07,0,0,1-1.283,2.009v1.651h2.067A6.541,6.541,0,0,0,13.149,7.312Z" fill="var(--paymentLogoColor, #4285f4)"></path><path d="M6.992,13.77a6.033,6.033,0,0,0,4.25-1.6L9.175,10.523a3.769,3.769,0,0,1-2.183.633,3.853,3.853,0,0,1-3.6-2.725H1.262v1.707A6.394,6.394,0,0,0,6.992,13.77Z" fill="var(--paymentLogoColor, #34a853)"></path><path d="M3.392,8.431a4.1,4.1,0,0,1,0-2.531V4.2H1.262a6.724,6.724,0,0,0,0,5.925Z" fill="var(--paymentLogoColor, #fbbc04)"></path><path d="M6.992,3.175a3.4,3.4,0,0,1,2.459.991l1.836-1.889A6.1,6.1,0,0,0,6.992.561,6.4,6.4,0,0,0,1.262,4.2l2.13,1.706A3.85,3.85,0,0,1,6.992,3.175Z" fill="var(--paymentLogoColor, #ea4335)"></path></svg>